<?xml version="1.0" encoding="UTF-8" standalone="no"?>
<!-- Created with Inkscape (http://www.inkscape.org/) -->

<svg
   width="131.75574"
   height="131.75574"
   viewBox="0 0 34.860371 34.860373"
   version="1.1"
   id="svg5"
   inkscape:version="1.1.1 (3bf5ae0d25, 2021-09-20)"
   sodipodi:docname="引掛けシーリング-丸.svg"
   xmlns:inkscape="http://www.inkscape.org/namespaces/inkscape"
   xmlns:sodipodi="http://sodipodi.sourceforge.net/DTD/sodipodi-0.dtd"
   xmlns="http://www.w3.org/2000/svg"
   xmlns:svg="http://www.w3.org/2000/svg">
  <sodipodi:namedview
     id="namedview7"
     pagecolor="#ffffff"
     bordercolor="#666666"
     borderopacity="1.0"
     inkscape:pageshadow="2"
     inkscape:pageopacity="0.0"
     inkscape:pagecheckerboard="0"
     inkscape:document-units="mm"
     showgrid="false"
     units="mm"
     fit-margin-top="0"
     fit-margin-left="0"
     fit-margin-right="0"
     fit-margin-bottom="0"
     inkscape:zoom="3.4011976"
     inkscape:cx="27.34331"
     inkscape:cy="62.477993"
     inkscape:window-width="1920"
     inkscape:window-height="1009"
     inkscape:window-x="950"
     inkscape:window-y="2152"
     inkscape:window-maximized="1"
     inkscape:current-layer="layer1" />
  <defs
     id="defs2" />
  <g
     inkscape:label="Layer 1"
     inkscape:groupmode="layer"
     id="layer1"
     transform="translate(-16.436477,-16.436477)">
    <circle
       style="fill:none;stroke:#000000;stroke-width:1;stroke-miterlimit:4;stroke-dasharray:none;stroke-opacity:1"
       id="circle29359"
       cx="47.894695"
       cy="-1.1352537e-07"
       r="16.933332"
       transform="rotate(45)" />
    <path
       id="circle29359-7"
       style="color:#000000;fill:#000000;stroke-width:3.77953;-inkscape-stroke:none"
       d="M 49.099609 15.507812 C 41.507597 18.026509 34.372112 22.299762 28.335938 28.335938 C 7.6191578 49.052716 7.6191589 82.701189 28.335938 103.41797 C 34.372222 109.45425 41.507364 113.72741 49.099609 116.24609 L 51.023438 112.91406 C 43.704937 110.6064 36.816331 106.55266 31.009766 100.74609 C 11.737326 81.473659 11.737327 50.282203 31.009766 31.009766 C 36.816331 25.2032 43.704938 21.149459 51.023438 18.841797 L 49.099609 15.507812 z M 82.65625 15.507812 L 80.732422 18.841797 C 88.050445 21.149528 94.939871 25.203538 100.74609 31.009766 C 120.01853 50.282204 120.01854 81.473662 100.74609 100.74609 C 94.93953 106.55266 88.050922 110.6064 80.732422 112.91406 L 82.65625 116.24609 C 90.247839 113.72734 97.38215 109.45379 103.41797 103.41797 C 124.13475 82.701191 124.13475 49.052718 103.41797 28.335938 C 97.382094 22.300064 90.247838 18.026559 82.65625 15.507812 z "
       transform="matrix(0.26458333,0,0,0.26458333,16.436477,16.436477)" />
  </g>
</svg>
